<svg  viewBox="0 0 22 11" fill="none" xmlns="http://www.w3.org/2000/svg">
<g clip-path="url(#clip0_1813_862)">
<path d="M10.397 2.29548C10.464 2.23425 10.5421 2.18323 10.6426 2.14242C10.7431 2.1016 10.8437 2.08119 10.9553 2.08119C11.067 2.08119 11.1675 2.1016 11.268 2.14242C11.3462 2.17303 11.4467 2.22405 11.5249 2.31589L11.7482 2.51997L19.4203 9.64242L20.8832 11.0098L22 9.96895L11.5249 0.234254C11.4467 0.152621 11.335 0.0913983 11.268 0.0607854C11.1675 0.0199691 11.067 -0.000439571 10.9553 -0.00043958C10.8437 -0.000439589 10.7431 0.019969 10.6426 0.0607853C10.5421 0.101602 10.464 0.152622 10.397 0.213846L1.0557e-07 9.89752L1.11675 10.9383L10.4081 2.30568L10.397 2.29548Z" fill="#BBC2CF"/>
</g>
<defs>
<clipPath id="clip0_1813_862">
<rect width="22" height="11" fill="white"/>
</clipPath>
</defs>
</svg>
