<svg viewBox="0 0 25 25" fill="none" xmlns="http://www.w3.org/2000/svg">
<path d="M24.3575 6.85896L18.1425 0.642691C17.2859 -0.21423 15.8918 -0.21423 15.0351 0.642691L1.07374 14.6044C-0.357849 16.0359 -0.357898 18.3531 1.0735 19.7848L5.21676 23.929C6.64396 25.3565 8.96725 25.3576 10.3956 23.9292C10.3956 23.9292 23.885 10.4396 24.3574 9.96709C25.2142 9.11012 25.2142 7.71583 24.3575 6.85896ZM9.35988 22.8931C8.50314 23.7498 7.10919 23.7498 6.25255 22.8929L2.10929 18.7488C1.25045 17.8897 1.2505 16.4994 2.10944 15.6405L4.73268 13.0172L11.9834 20.2695L9.35988 22.8931ZM13.0193 19.2336L5.76857 11.9812L14.5171 3.2326L21.7678 10.4849L13.0193 19.2336ZM23.3216 8.93098L22.8037 9.44897L15.5529 2.19668L16.0709 1.67875C16.3565 1.3931 16.8212 1.39305 17.1068 1.6787L23.3216 7.89497C23.6072 8.18063 23.6072 8.64538 23.3216 8.93098Z" fill="white"/>
</svg>
