<svg viewBox="0 0 27 25" fill="none" xmlns="http://www.w3.org/2000/svg">
<path d="M13.8154 21.7373C6.99788 21.7373 1.65214 13.9445 1.42998 13.6181C1.27725 13.3869 1.27725 13.1013 1.42998 12.8701C1.65214 12.5301 6.99788 4.7373 13.8154 4.7373C20.633 4.7373 25.9787 12.5301 26.2009 12.8565C26.3536 13.0877 26.3536 13.3733 26.2009 13.6045C25.9787 13.9445 20.633 21.7373 13.8154 21.7373ZM2.86014 13.2373C3.99871 14.7605 8.53912 20.3773 13.8154 20.3773C19.0917 20.3773 23.6321 14.7605 24.7707 13.2373C23.6321 11.7141 19.0917 6.0973 13.8154 6.0973C8.53912 6.0973 3.99871 11.7141 2.86014 13.2373Z" fill="white"/>
<path d="M13.8153 17.3173C11.5243 17.3173 9.64984 15.4813 9.64984 13.2373C9.64984 10.9933 11.5243 9.1573 13.8153 9.1573C16.1064 9.1573 17.9809 10.9933 17.9809 13.2373C17.9809 15.4813 16.1064 17.3173 13.8153 17.3173ZM13.8153 10.5173C12.288 10.5173 11.0383 11.7413 11.0383 13.2373C11.0383 14.7333 12.288 15.9573 13.8153 15.9573C15.3427 15.9573 16.5924 14.7333 16.5924 13.2373C16.5924 11.7413 15.3427 10.5173 13.8153 10.5173Z" fill="white"/>
</svg>
