<svg viewBox="0 0 25 26" fill="none" xmlns="http://www.w3.org/2000/svg">
<path d="M13.8061 10.0341V19.0193H12.1572V10.0341H13.8061ZM14.1767 7.21347C14.1767 7.36722 14.1427 7.51209 14.0748 7.6481C14.013 7.77819 13.9266 7.89645 13.8154 8.00289C13.7104 8.10342 13.5869 8.18325 13.4449 8.24238C13.3028 8.30151 13.1515 8.33108 12.9909 8.33108C12.8304 8.33108 12.6791 8.30151 12.537 8.24238C12.4012 8.18325 12.2776 8.10342 12.1665 8.00289C12.0615 7.89645 11.9781 7.77819 11.9164 7.6481C11.8546 7.51209 11.8237 7.36722 11.8237 7.21347C11.8237 7.05973 11.8546 6.91485 11.9164 6.77885C11.9781 6.63693 12.0615 6.51571 12.1665 6.41518C12.2776 6.30874 12.4012 6.22596 12.537 6.16682C12.6791 6.10769 12.8304 6.07812 12.9909 6.07812C13.1515 6.07812 13.3028 6.10769 13.4449 6.16682C13.5869 6.22596 13.7104 6.30874 13.8154 6.41518C13.9266 6.51571 14.013 6.63693 14.0748 6.77885C14.1427 6.91485 14.1767 7.05973 14.1767 7.21347Z" fill="white"/>
<circle cx="13" cy="12.5488" r="9.41177" stroke="white" stroke-width="1.17647"/>
</svg>
