<svg width="11" height="11" viewBox="0 0 11 11" fill="none" xmlns="http://www.w3.org/2000/svg">
<g id="Icons">
<g id="Vector">
<path d="M1.78769 9.21213C1.67827 9.10271 1.67827 8.93077 1.78769 8.82136L8.82154 1.78751C8.93096 1.67809 9.10289 1.67809 9.21231 1.78751C9.32173 1.89692 9.32173 2.06886 9.21231 2.17828L2.17846 9.21213C2.06904 9.32154 1.89711 9.32154 1.78769 9.21213Z" fill="white"/>
<path d="M8.82154 9.21213L1.78769 2.17828C1.67827 2.06886 1.67827 1.89692 1.78769 1.78751C1.89711 1.67809 2.06904 1.67809 2.17846 1.78751L9.21231 8.82136C9.32173 8.93077 9.32173 9.10271 9.21231 9.21213C9.10289 9.32154 8.93096 9.32154 8.82154 9.21213Z" fill="white"/>
</g>
</g>
</svg>
