<svg viewBox="0 0 27 27" fill="none" xmlns="http://www.w3.org/2000/svg">
<path d="M17.3942 5.64327L13.5 1.98663L9.60579 5.64327L8.87695 4.86713L13.5 0.526367L18.123 4.86713L17.3942 5.64327Z" fill="white"/>
<path d="M14.0324 1.25684H12.9678V11.9034H14.0324V1.25684Z" fill="white"/>
<path d="M13.5 26.4733L8.87695 22.1326L9.60579 21.3564L13.5 25.0131L17.3942 21.3564L18.123 22.1326L13.5 26.4733Z" fill="white"/>
<path d="M14.0324 15.0967H12.9678V25.7432H14.0324V15.0967Z" fill="white"/>
<path d="M22.1331 18.123L21.3569 17.3942L25.0136 13.5L21.3569 9.60579L22.1331 8.87695L26.4738 13.5L22.1331 18.123Z" fill="white"/>
<path d="M25.7437 12.9678H15.0972V14.0324H25.7437V12.9678Z" fill="white"/>
<path d="M4.86713 18.123L0.526367 13.5L4.86713 8.87695L5.64327 9.60579L1.98663 13.5L5.64327 17.3942L4.86713 18.123Z" fill="white"/>
<path d="M11.9029 12.9678H1.25635V14.0324H11.9029V12.9678Z" fill="white"/>
</svg>
