<svg  viewBox="0 0 25 25" fill="none" xmlns="http://www.w3.org/2000/svg">
<path d="M23.9267 1.07325C22.4957 -0.3578 20.1797 -0.357702 18.7489 1.07325L3.32314 16.4989C3.25722 16.5648 3.20458 16.6426 3.16786 16.7283L0.0611284 23.9773C-0.198686 24.5835 0.416646 25.1986 1.02265 24.9389L8.27172 21.8321C8.35736 21.7954 8.43519 21.7427 8.50106 21.6768L23.9267 6.25118C25.3578 4.82017 25.3577 2.50426 23.9267 1.07325ZM15.7344 6.15879C16.302 6.17222 16.8531 6.33721 17.3319 6.63252L7.05975 16.9047C6.63807 16.5993 6.16923 16.3682 5.6744 16.2188L15.7344 6.15879ZM2.12836 22.8716L2.75795 21.4025C3.08744 21.6274 3.37255 21.9125 3.5977 22.2418L2.12836 22.8716ZM4.9619 21.6572C4.56523 20.9927 4.00722 20.4349 3.34257 20.0385L4.43593 17.4872C5.24003 17.5137 6.01005 17.8436 6.58378 18.4174C7.15712 18.9907 7.487 19.76 7.5139 20.5635L4.9619 21.6572ZM8.78177 19.3249C8.63221 18.8303 8.40101 18.3616 8.0955 17.9401L18.3677 7.66787C18.6633 8.14629 18.8285 8.69717 18.8423 9.26445L8.78177 19.3249ZM20.1095 7.99717C19.8901 7.27115 19.4945 6.60137 18.9471 6.05401C18.3993 5.50621 17.7288 5.11036 17.0021 4.89102L18.5378 3.35538C19.3523 3.37467 20.1343 3.70548 20.715 4.28619C21.2951 4.86632 21.6258 5.64717 21.6457 6.46104L20.1095 7.99717ZM22.9127 5.19298C22.6932 4.46729 22.2977 3.79776 21.7506 3.25064C21.2029 2.70299 20.5327 2.30729 19.8064 2.0879C20.669 1.2482 22.0416 1.25939 22.8911 2.10885C23.7457 2.96339 23.7465 4.3357 22.9127 5.19298Z" fill="white"/>
</svg>
