<svg viewBox="0 0 26 18" fill="none" xmlns="http://www.w3.org/2000/svg">
<path d="M20.2092 13.3627H16.0009C15.6594 13.3627 15.391 13.097 15.391 12.7589C15.391 12.4208 15.6594 12.1552 16.0009 12.1552H20.2092C21.9291 12.1552 23.3197 10.8028 23.3197 9.13641C23.3197 7.47006 21.917 6.11766 20.2092 6.11766H16.0009C15.6594 6.11766 15.391 5.85201 15.391 5.51391C15.391 5.17581 15.6594 4.91016 16.0009 4.91016H20.2092C22.6 4.91016 24.5395 6.80593 24.5395 9.13641C24.5395 11.4669 22.6 13.3627 20.2092 13.3627Z" fill="white"/>
<path d="M17.2207 9.74016H8.6821C8.34055 9.74016 8.07219 9.47451 8.07219 9.13641C8.07219 8.79831 8.34055 8.53266 8.6821 8.53266H17.2207C17.5623 8.53266 17.8306 8.79831 17.8306 9.13641C17.8306 9.47451 17.5623 9.74016 17.2207 9.74016Z" fill="white"/>
<path d="M9.9019 13.3627H5.76677C3.33936 13.3627 1.36328 11.4669 1.36328 9.13641C1.36328 6.80593 3.33936 4.91016 5.76677 4.91016H9.9019C10.2434 4.91016 10.5118 5.17581 10.5118 5.51391C10.5118 5.85201 10.2434 6.11766 9.9019 6.11766H5.76677C4.01025 6.11766 2.58308 7.47006 2.58308 9.13641C2.58308 10.8028 4.01025 12.1552 5.76677 12.1552H9.9019C10.2434 12.1552 10.5118 12.4208 10.5118 12.7589C10.5118 13.097 10.2434 13.3627 9.9019 13.3627Z" fill="white"/>
</svg>
