<svg viewBox="0 0 24 24" fill="none" xmlns="http://www.w3.org/2000/svg">
<path d="M15.3101 18.0349H8.87945C8.51933 18.0349 8.23638 17.7519 8.23638 17.3918V16.1057C8.23638 15.9642 8.14635 15.8227 8.00487 15.7198C5.80557 14.2022 4.68663 11.6299 5.11106 9.01904C5.43259 6.97408 6.77018 5.1349 8.6608 4.10598C10.6029 3.05135 12.9179 2.96132 14.9886 3.87448C17.2908 4.89053 18.8728 6.98694 19.13 9.3663C19.4001 11.8485 18.2683 14.2794 16.1847 15.7198C16.0432 15.8227 15.9532 15.9642 15.9532 16.1057V17.3918C15.9532 17.7519 15.6703 18.0349 15.3101 18.0349ZM9.52252 16.7487H14.6671V16.1057C14.6671 15.5398 14.9629 14.9996 15.4516 14.6652C17.175 13.4819 18.0753 11.5527 17.8438 9.50777C17.6381 7.59142 16.3391 5.88086 14.4613 5.05773C12.7379 4.2989 10.8858 4.36321 9.26529 5.23779C7.72192 6.08664 6.6287 7.5657 6.37148 9.22482C6.03708 11.347 6.93738 13.4305 8.72511 14.6652C9.22671 14.9996 9.52252 15.5398 9.52252 16.1057V16.7487Z" fill="white"/>
<path d="M15.3101 23.1794H8.87944C8.51932 23.1794 8.23637 22.8965 8.23637 22.5363L8.23638 17.3918C8.23638 17.0317 8.51932 16.7487 8.87944 16.7487H15.3101C15.6703 16.7487 15.9532 17.0317 15.9532 17.3918L15.9532 22.5363C15.9532 22.8965 15.6703 23.1794 15.3101 23.1794ZM9.52251 21.8933H14.6671V18.0349H9.52251V21.8933Z" fill="white"/>
<path d="M1.17546 11.6042C0.815343 11.6042 0.519531 11.3212 0.519531 10.9611C0.519531 10.601 0.802482 10.318 1.1626 10.318H1.17546C1.53558 10.318 1.81853 10.601 1.81853 10.9611C1.81853 11.3212 1.53558 11.6042 1.17546 11.6042Z" fill="white"/>
<path d="M3.74774 19.321C3.38762 19.321 3.09181 19.038 3.09181 18.6779C3.09181 18.3178 3.37476 18.0349 3.73488 18.0349H3.74774C4.10786 18.0349 4.39081 18.3178 4.39081 18.6779C4.39081 19.038 4.10786 19.321 3.74774 19.321Z" fill="white"/>
<path d="M23.0395 11.6042C22.6794 11.6042 22.3965 11.3212 22.3965 10.9611C22.3965 10.601 22.6794 10.318 23.0395 10.318H23.0524C23.4125 10.318 23.6955 10.601 23.6955 10.9611C23.6955 11.3212 23.3997 11.6042 23.0395 11.6042Z" fill="white"/>
<path d="M20.4547 19.321C20.2875 19.321 20.1203 19.2567 20.0046 19.1281C19.9402 19.0766 19.8888 18.9995 19.8631 18.9223C19.8245 18.8451 19.8116 18.768 19.8116 18.6779C19.8116 18.5107 19.8759 18.3435 20.0046 18.2278C20.2361 17.9834 20.6733 17.9834 20.9049 18.2278C21.0335 18.3435 21.0978 18.5107 21.0978 18.6779C21.0978 18.768 21.0849 18.8451 21.0463 18.9223C21.0206 18.9995 20.9692 19.0766 20.9049 19.1281C20.7891 19.2567 20.6219 19.321 20.4547 19.321Z" fill="white"/>
<path d="M20.4676 5.17345C20.1074 5.17345 19.8116 4.8905 19.8116 4.53039C19.8116 4.17027 20.0946 3.88732 20.4547 3.88732H20.4676C20.8277 3.88732 21.1106 4.17027 21.1106 4.53039C21.1106 4.8905 20.8277 5.17345 20.4676 5.17345Z" fill="white"/>
<path d="M3.74774 5.17345C3.38762 5.17345 3.09181 4.8905 3.09181 4.53039C3.09181 4.17027 3.37476 3.88732 3.73488 3.88732H3.74774C4.10786 3.88732 4.39081 4.17027 4.39081 4.53039C4.39081 4.8905 4.10786 5.17345 3.74774 5.17345Z" fill="white"/>
<path d="M8.87944 1.31505C8.80227 1.31505 8.71224 1.30219 8.63507 1.2636C8.55791 1.23788 8.48074 1.18643 8.42929 1.12213C8.30068 1.00638 8.23637 0.839177 8.23637 0.671979C8.23637 0.504781 8.30068 0.337583 8.42929 0.22183C8.48074 0.157523 8.55791 0.106077 8.63507 0.0803546C8.86658 -0.0225366 9.14953 0.0417706 9.32959 0.22183C9.4582 0.337583 9.52251 0.504781 9.52251 0.671979C9.52251 0.839177 9.4582 1.00638 9.32959 1.12213C9.21384 1.25074 9.04664 1.31505 8.87944 1.31505Z" fill="white"/>
<path d="M15.3101 1.31504C15.1429 1.31504 14.9757 1.25074 14.86 1.12212C14.7314 1.00637 14.6671 0.839172 14.6671 0.671974C14.6671 0.581944 14.6799 0.504776 14.7185 0.427608C14.7442 0.350439 14.7957 0.273271 14.86 0.221825C15.0915 -0.0225412 15.5288 -0.0225412 15.7603 0.221825C15.8246 0.273271 15.876 0.350439 15.9018 0.427608C15.9403 0.504776 15.9532 0.581944 15.9532 0.671974C15.9532 0.839172 15.8889 1.00637 15.7603 1.12212C15.6445 1.25074 15.4773 1.31504 15.3101 1.31504Z" fill="white"/>
</svg>
