<svg viewBox="0 0 29 29" fill="none" xmlns="http://www.w3.org/2000/svg">
<path d="M12.034 22.5304C6.28957 22.5304 1.62744 17.8657 1.62744 12.1182C1.62744 6.3707 6.28957 1.70605 12.034 1.70605C17.7784 1.70605 22.4405 6.3707 22.4405 12.1182C22.4405 17.8657 17.7784 22.5304 12.034 22.5304ZM12.034 3.09434C7.06659 3.09434 3.01498 7.14815 3.01498 12.1182C3.01498 17.0883 7.06659 21.1421 12.034 21.1421C17.0014 21.1421 21.053 17.0883 21.053 12.1182C21.053 7.14815 17.0014 3.09434 12.034 3.09434Z" fill="white"/>
<path d="M16.1966 12.8124H7.87135C7.48284 12.8124 7.17758 12.5069 7.17758 12.1182C7.17758 11.7295 7.48284 11.4241 7.87135 11.4241H16.1966C16.5851 11.4241 16.8904 11.7295 16.8904 12.1182C16.8904 12.5069 16.5851 12.8124 16.1966 12.8124Z" fill="white"/>
<path d="M26.6031 27.3894C26.4227 27.3894 26.2424 27.32 26.1175 27.1812L19.1798 20.2397C18.9023 19.9621 18.9023 19.5317 19.1798 19.254C19.4573 18.9764 19.8874 18.9764 20.1649 19.254L27.1026 26.1955C27.3801 26.4731 27.3801 26.9035 27.1026 27.1812C26.9639 27.32 26.7835 27.3894 26.6031 27.3894Z" fill="white"/>
</svg>
