<svg viewBox="0 0 29 29" fill="none" xmlns="http://www.w3.org/2000/svg">
<path d="M12.0345 22.4532C6.29006 22.4532 1.62793 17.7886 1.62793 12.0411C1.62793 6.29356 6.29006 1.62891 12.0345 1.62891C17.7789 1.62891 22.441 6.29356 22.441 12.0411C22.441 17.7886 17.7789 22.4532 12.0345 22.4532ZM12.0345 3.01719C7.06708 3.01719 3.01547 7.071 3.01547 12.0411C3.01547 17.0111 7.06708 21.0649 12.0345 21.0649C17.0019 21.0649 21.0535 17.0111 21.0535 12.0411C21.0535 7.071 17.0019 3.01719 12.0345 3.01719Z" fill="white"/>
<path d="M26.6036 27.3122C26.4232 27.3122 26.2429 27.2428 26.118 27.104L19.1803 20.1626C18.9028 19.8849 18.9028 19.4545 19.1803 19.1769C19.4578 18.8992 19.8879 18.8992 20.1654 19.1769L27.1031 26.1183C27.3806 26.396 27.3806 26.8263 27.1031 27.104C26.9644 27.2428 26.784 27.3122 26.6036 27.3122Z" fill="white"/>
<path d="M12.0345 16.9001C11.646 16.9001 11.3407 16.5947 11.3407 16.2059V7.8762C11.3407 7.48748 11.646 7.18206 12.0345 7.18206C12.423 7.18206 12.7282 7.48748 12.7282 7.8762V16.2059C12.7282 16.5947 12.423 16.9001 12.0345 16.9001Z" fill="white"/>
<path d="M16.1971 12.7352H7.87185C7.48334 12.7352 7.17808 12.4298 7.17808 12.0411C7.17808 11.6523 7.48334 11.3469 7.87185 11.3469H16.1971C16.5856 11.3469 16.8909 11.6523 16.8909 12.0411C16.8909 12.4298 16.5856 12.7352 16.1971 12.7352Z" fill="white"/>
</svg>
